<?xml version="1.0" encoding="utf-8"?>
<!-- Generator: Adobe Illustrator 27.0.0, SVG Export Plug-In . SVG Version: 6.00 Build 0)  -->
<svg version="1.1" id="图层_1" xmlns="http://www.w3.org/2000/svg" xmlns:xlink="http://www.w3.org/1999/xlink" x="0px" y="0px"
	 viewBox="0 0 512 512" style="enable-background:new 0 0 512 512;" xml:space="preserve">
<style type="text/css">
	.st0{fill:#FF595A;}
</style>
<path class="st0" d="M466.5,83.7l-192-80c-4.9-2-13.2-3.7-18.4-3.7c-5.3,0-13.6,1.7-18.5,3.7l-192,80C27.7,91.1,16,108.6,16,127.1
	C16,385.2,205.2,512,255.1,512c52,0,240.9-128.2,240.9-384.9C496,108.6,484.3,91.1,466.5,83.7z M232,152c0-13.2,10.8-24,24-24
	c13.2,0,24,10.8,24,24v112c0,13.3-10.7,24-24,24s-24-10.7-24-24V152z M256,384c-17.7,0-32-14.3-32-32s14.3-32,32-32s32,14.3,32,32
	S273.7,384,256,384z"/>
</svg>
