<?xml version="1.0" encoding="utf-8"?>
<!-- Generator: Adobe Illustrator 27.0.0, SVG Export Plug-In . SVG Version: 6.00 Build 0)  -->
<svg version="1.1" id="图层_1" xmlns="http://www.w3.org/2000/svg" xmlns:xlink="http://www.w3.org/1999/xlink" x="0px" y="0px"
	 viewBox="0 0 512 512" style="enable-background:new 0 0 512 512;" xml:space="preserve">
<style type="text/css">
	.st0{fill:#3BA55E;}
</style>
<path class="st0" d="M256,0c36.8,0,68.8,20.7,84.9,51.1c32.9-11,69.2-2.1,96.1,23.9c26,26,33.1,63.2,23.9,96.1
	c30.4,16.1,51.1,48.1,51.1,84.9s-20.7,68.8-51.1,84.9C471,373.8,463,410.1,437,437c-26.9,26-63.2,33.1-96.1,23.9
	C324.8,491.3,292.8,512,256,512s-68.8-20.7-84.9-51.1C138.2,471,101,463,75,437c-26-26.9-34-63.2-23.9-96.1
	C20.7,324.8,0,292.8,0,256s20.7-68.8,51.1-84.9C40.1,138.2,49,101,75,75s63.2-34,96.1-23.9C187.2,20.7,219.2,0,256,0L256,0z
	 M352.1,224.1c10.2-8.5,10.2-23.7,0-33.1c-8.5-9.3-23.7-9.3-33.1,0l-95,95.1L184.1,247c-8.5-9.3-23.7-9.3-33.1,0
	c-9.3,9.4-9.3,24.6,0,33.1l56,56c9.4,10.2,24.6,10.2,33.1,0L352.1,224.1z"/>
</svg>
